# xmcd
#
# Track frame offsets:
#	150
#	17399
#	35848
#	53097
#	67196
#	87295
#	102444
#	121193
#	139192
#	162741
#	186440
#	205940
#	220489
#	237888
#	252737
#	268786
#
# Disc length: 3787 seconds
#
# Revision: 0
# Processed by: cddbd v1.5.2PL0 Copyright (c) Steve Scherf et al.
# Submitted via: EasyCDDAExtractor 16.0.5.1
#
DISCID=fa0ec910
DTITLE=Hope - The Best Of Hope
DYEAR=1900
DGENRE=Life
TTITLE0=สอดคล้องและสมดุลย์
TTITLE1=นกเขาน้อย
TTITLE2=ธูปดอกสุดท้าย
TTITLE3=กำลังใจ
TTITLE4=ปรารถนา
TTITLE5=อีสานแล้ง
TTITLE6=โรยไม่รู้บาน
TTITLE7=หัวโขน
TTITLE8=ไม่สิ้นคนดี
TTITLE9=เพาะรัก
TTITLE10=ด้วยแรงใจไม่ไหวเอน
TTITLE11=ฟ้าไม่มีดาว
TTITLE12=จรวด
TTITLE13=ก็ไม่เป็นไร
TTITLE14=หนอนเต็มขั้น
TTITLE15=จากใจ
EXTD=
EXTT0=
EXTT1=
EXTT2=
EXTT3=
EXTT4=
EXTT5=
EXTT6=
EXTT7=
EXTT8=
EXTT9=
EXTT10=
EXTT11=
EXTT12=
EXTT13=
EXTT14=
EXTT15=
PLAYORDER=
